<svg width="1300" height="650" viewBox="0 0 1300 650" fill="none" xmlns="http://www.w3.org/2000/svg">
    <rect width="1300" height="650" fill="#E5E7EB" />
    <rect x="45" y="168" width="597" height="210" fill="#D1D5DB" />
    <rect x="45" y="395" width="597" height="210" fill="#D1D5DB" />
    <rect x="664" y="168" width="597" height="210" fill="#D1D5DB" />
    <rect x="664" y="395" width="597" height="210" fill="#D1D5DB" />
    <rect x="69" y="189" width="75" height="75" rx="37.5" fill="#9CA3AF" />
    <rect x="69" y="416" width="75" height="75" rx="37.5" fill="#9CA3AF" />
    <rect x="688" y="189" width="75" height="75" rx="37.5" fill="#9CA3AF" />
    <rect x="688" y="416" width="75" height="75" rx="37.5" fill="#9CA3AF" />
    <rect x="45" y="44" width="442" height="33" rx="10" fill="#D1D5DB" />
    <rect x="45" y="84" width="229" height="28" rx="10" fill="#D1D5DB" />
    <rect x="69" y="281" width="157" height="14" rx="7" fill="#9CA3AF" />
    <rect x="69" y="508" width="157" height="14" rx="7" fill="#9CA3AF" />
    <rect x="688" y="281" width="157" height="14" rx="7" fill="#9CA3AF" />
    <rect x="688" y="508" width="157" height="14" rx="7" fill="#9CA3AF" />
    <rect x="69" y="302" width="554" height="14" rx="7" fill="#9CA3AF" />
    <rect x="69" y="529" width="554" height="14" rx="7" fill="#9CA3AF" />
    <rect x="688" y="302" width="554" height="14" rx="7" fill="#9CA3AF" />
    <rect x="688" y="529" width="554" height="14" rx="7" fill="#9CA3AF" />
    <rect x="69" y="322" width="554" height="14" rx="7" fill="#9CA3AF" />
    <rect x="69" y="549" width="554" height="14" rx="7" fill="#9CA3AF" />
    <rect x="688" y="322" width="554" height="14" rx="7" fill="#9CA3AF" />
    <rect x="688" y="549" width="554" height="14" rx="7" fill="#9CA3AF" />
    <rect x="69" y="342" width="339" height="14" rx="7" fill="#9CA3AF" />
    <rect x="69" y="569" width="339" height="14" rx="7" fill="#9CA3AF" />
    <rect x="688" y="342" width="339" height="14" rx="7" fill="#9CA3AF" />
    <rect x="688" y="569" width="339" height="14" rx="7" fill="#9CA3AF" />
</svg>